PathFileType	4	(X/Y/Z)	18_2_25_p1_0-359.trc
DataRate	CameraRate	NumFrames	NumMarkers	Units	OrigDataRate	OrigDataStartFrame	OrigNumFrames
60.0	60.0	6	27	m	60.0	90	360
Frame#	Time	RHip			RKnee			RAnkle			RBigToe			RSmallToe			RHeel			LHip			LKnee			LAnkle			LBigToe			LSmallToe			LHeel			Neck			Head			Nose			RShoulder			RElbow			RWrist			RThumb			RIndex			RPinky			LShoulder			LElbow			LWrist			LThumb			LIndex			LPinky			
		X1	Y1	Z1	X2	Y2	Z2	X3	Y3	Z3	X4	Y4	Z4	X5	Y5	Z5	X6	Y6	Z6	X7	Y7	Z7	X8	Y8	Z8	X9	Y9	Z9	X10	Y10	Z10	X11	Y11	Z11	X12	Y12	Z12	X13	Y13	Z13	X14	Y14	Z14	X15	Y15	Z15	X16	Y16	Z16	X17	Y17	Z17	X18	Y18	Z18	X19	Y19	Z19	X20	Y20	Z20	X21	Y21	Z21	X22	Y22	Z22	X23	Y23	Z23	X24	Y24	Z24	X25	Y25	Z25	X26	Y26	Z26	X27	Y27	Z27	
90	1.5	0.2679505969889779	0.36934501750749216	1.1285687337620642	0.23213430478146133	0.4363672558542435	1.5621833201399815	0.21800341408920323	0.6192130727567084	2.0272707814120077	0.2170384497606689	0.3988706880947771	2.045600709498392	0.26239456141554396	0.44853699712635153	2.0533002863301513	0.20659263798554062	0.6689876679739135	2.078199814012391	0.07937384341525795	0.3405926056407396	1.11437567220829	0.07582287610282322	0.41400181741747366	1.5544020866633124	0.062148940659665045	0.5809172507302667	2.016860857048028	0.06536579714785015	0.4074980852528265	2.053092700350488	0.014064978655210432	0.44889117789349064	2.052352487283298	0.08188278544770178	0.6487791331337706	2.072844043561642	0.19159956555294805	0.2698614772743129	0.5816048988466181	0.17303792597700704	0.19465840666594572	0.3635012746028289	0.14759444248145367	0.1572479465469022	0.49129977358132576	0.3166467932949303	0.28965758064517005	0.6529991742280745	0.3706320743497278	0.37867993964274976	0.8843059545538147	0.37625095944463555	0.3746543128921757	1.1437968431526306	0.3185931665177036	0.34695850781123055	1.2412688991352194	0.325254956275646	0.3539241410518536	1.273292861284298	0.35094691513612547	0.399561354130787	1.272151410331582	0.042391307835296974	0.3036394914948918	0.6355862652765929	-0.008306394497021554	0.3159206248089683	0.8724941988433063	-0.0289603718333881	0.3247690957063667	1.1049981781601668	0.015067798849095695	0.3146412745887019	1.2044087375590806	-0.017729703834931155	0.3160413841781448	1.2303282787873027	-0.03884269830572604	0.35432750541408964	1.2362344578340734
91	1.5166666666666666	0.267506967394541	0.39650814626802844	1.1332551047898323	0.23280681108947238	0.4405497052152446	1.563267143268888	0.21799364761466866	0.6188465248438704	2.027486112712979	0.21368052615290337	0.38593001987308856	2.0395161653189673	0.26251495959935134	0.4481797795317754	2.053181816071543	0.2065363274969924	0.6684828410870053	2.0786532038594956	0.07520971823893674	0.34115228518353125	1.1108936444890225	0.0758667504657889	0.413963115491371	1.55429187698121	0.06211956430941534	0.5807692019174667	2.0169179350941837	0.06221612608328486	0.39051349252360984	2.04082109417177	0.01678455023596665	0.4198217306128625	2.038196389195661	0.07918054603979552	0.6326887407573505	2.07067568207193	0.191607830204881	0.26985493946389977	0.5813471497421426	0.16916596880437168	0.20598560889765744	0.36285411902569764	0.14748546908079757	0.15829002453963797	0.4882573610171164	0.312388524803025	0.28775690541226917	0.6460694837525148	0.37067569040328097	0.37936975613705565	0.8764816063149617	0.3764437466305254	0.3746795608336481	1.1436131954599913	0.3192146055623978	0.3444263173579347	1.2404198717287578	0.32948986958847143	0.35393992201242086	1.2679650305973533	0.35513271802798524	0.41603580686659236	1.265756298818468	0.042147502832010915	0.30255166654727406	0.628138764689026	-0.007927238369874568	0.31512942096337887	0.8688924538341464	-0.02948105976499541	0.3237466308200019	1.0967970950588588	0.018660205389979912	0.3178096791938067	1.2008234831651494	-0.01694897324494839	0.3156321052929641	1.226434554922942	-0.03751147300636804	0.3526171917365015	1.2303807142193415
92	1.5333333333333334	0.26682325626103875	0.3988859257039013	1.1335137562058084	0.232811424583613	0.44098140742971687	1.563516844147118	0.21904008387255494	0.6176691394097115	2.0223982415083084	0.2170374787182689	0.39936027966065857	2.045543299910826	0.26245549504921534	0.44903821687116524	2.0534191472538788	0.2061596537474538	0.6713083596885634	2.074249256743229	0.07523649133668732	0.34251282709492903	1.1072412745936575	0.07591783930141247	0.41398571178723015	1.5542546406377045	0.0620901480961891	0.5807975577605674	2.016835036693566	0.06297021430154928	0.3937676608903173	2.0464556443046775	0.011604789397437821	0.43436339276072516	2.045592075735467	0.07875946478481469	0.6344188216395883	2.0661730699645817	0.19159341730093268	0.2698429721166434	0.5812599229711759	0.16923911330313052	0.20540207181463635	0.36583623901281587	0.1477009391444552	0.15735888464283754	0.49139900564400574	0.3123601796885681	0.2876245355312086	0.6459661112666888	0.3705037679937292	0.38062460824376165	0.8724289285112122	0.38319088842698834	0.37022540923122166	1.1312942699682575	0.3189262770014374	0.3459745507878213	1.2366892381311845	0.3294238179395645	0.35580168440307197	1.263713322606121	0.35192424249675125	0.4148479937119516	1.257974749275532	0.04223150777653468	0.30246589741754315	0.6280258001521175	-0.00339417807933742	0.304135174948101	0.8637820077850578	-0.02445875668658529	0.31210234732660147	1.0908339076927924	0.023590760262611508	0.30480055463826805	1.1971668175815706	-0.01560389085200566	0.3155457509727272	1.2157050702187588	-0.03769673179170981	0.3537416125990596	1.225969745207284
93	1.55	0.26745162724114774	0.39799680799367754	1.1292092738441837	0.23671784642283294	0.4535828721254401	1.5675128023707603	0.21900586921054527	0.6175311404745656	2.022443350113928	0.21700387756806325	0.39910172160980495	2.0455384330487334	0.26240090502165914	0.4486634730562553	2.053315060003132	0.20612801354701252	0.6710914489710254	2.0745515484582064	0.07915018557677006	0.34411721976522314	1.1073436780385857	0.07597340692336389	0.4140580817897253	1.5540963441243234	0.062182300729073915	0.5808252154550182	2.016983046425536	0.0629708384778963	0.39375210643789704	2.0464527563896118	0.019260099756004102	0.4341911099203542	2.045144042237607	0.07885836573889843	0.6345701497261684	2.0663603579447116	0.1916155938123447	0.2696789994337455	0.5813443701800746	0.16553857127431473	0.2032457945586503	0.36607712073714793	0.14773169924112148	0.1573236559929384	0.49145092167138904	0.31238092620188923	0.2874954484809582	0.6458757475123381	0.3702651610657622	0.37785832041497336	0.8649227879764785	0.3864281312352074	0.3556257395432862	1.128165243040818	0.3188762745394202	0.34595257697599624	1.2363683086727921	0.3293835585358721	0.3572979047332617	1.2599652179170349	0.3602751982198044	0.42890240899309695	1.260701256081708	0.042177718024237566	0.3004330282118078	0.624545916765548	-0.005592924660971952	0.2887783175090114	0.8550006021399843	-0.02477429971412524	0.3124713309097572	1.0872462855919127	0.028386014444049316	0.2934219789042596	1.1906161019113821	-0.010614521875194793	0.31504421557944806	1.2115242142907634	-0.0369587100937411	0.3498469266449404	1.2173891259024265
94	1.5666666666666667	0.2669201253539608	0.39598643711653647	1.1243975685990257	0.2367336641394689	0.4537002351361858	1.5676561685984922	0.2190202446862994	0.6175753669484471	2.0224957384546602	0.21711938835730557	0.3991908638421865	2.0458627186211564	0.26255394468671356	0.4488192858316806	2.0535763540679617	0.206131086991299	0.6708471839357297	2.074891901736363	0.07850438356968018	0.3436839619130636	1.0992270509221513	0.07602273007358915	0.41392165166206807	1.5539874309297736	0.06214823525257833	0.5807720918310919	2.016850396544253	0.06306637873638576	0.3933201297946474	2.0463129467996803	0.01927846635307686	0.4340948621816663	2.045191783037164	0.07883411221479801	0.6343006840173311	2.0661289541485583	0.19164718848881737	0.26957069581064835	0.5812825614992526	0.16215420353884452	0.19307604025017092	0.3706224652259957	0.1477173826806342	0.15732665765517692	0.49156994406949905	0.31238129413830235	0.2874335021816963	0.6457676110383399	0.3702171410696415	0.3775382602732312	0.8646271354767928	0.38692467706572664	0.3544803672673512	1.1243883218758375	0.3181742819815666	0.34382202302348824	1.2323502567394098	0.3294490569739463	0.35749901272951384	1.25957913597204	0.35918598818866826	0.416967515076046	1.258018671415321	0.04654757266773209	0.28598373176415237	0.6206112452872252	-0.005551388698622152	0.28883936069369837	0.85457995357462	-0.024900217129965645	0.3121117063705829	1.0870269828999999	0.03400528145043789	0.2783263362430847	1.1875764364152477	-0.01055340505152781	0.314717290236583	1.2108787718387046	-0.03653330245347472	0.34984803301636175	1.2163375828962077
95	1.5833333333333333	0.2674309141774878	0.3984295194552869	1.129082554295017	0.23670479235430125	0.45382337969974024	1.5677712811744235	0.21903913006114262	0.6176461283596042	2.0224420394492526	0.2170613902198671	0.3989379354528893	2.04557244655791	0.26247175718063387	0.4485131968928426	2.0533401717629483	0.20616369029017828	0.6710872422516979	2.074553899664294	0.07875544813902735	0.3423575548044669	1.102486128392559	0.0709143158554903	0.4284978712411895	1.5589623448200232	0.062178728865625296	0.5807387761449844	2.0169236459925677	0.06553239680185287	0.4065593141731754	2.0528886664465755	0.019255273807244313	0.4340860571789686	2.0454454794089907	0.07883131300488513	0.6341012060878134	2.065921793656075	0.19557706872765288	0.25798278072285985	0.5811988029976995	0.16207519501278825	0.1931572142370302	0.3705966704292236	0.14773746620220238	0.15731779185887004	0.49163102129940217	0.31244075424983037	0.28742106333804335	0.6457256911396833	0.3702826287267669	0.37743780516312714	0.8643934295804457	0.3865364084137746	0.35213870932324765	1.1201272194779592	0.3180875473219937	0.34356584439464716	1.2320064706433078	0.32931315372186026	0.3601975779999825	1.247201664715935	0.36683228550083974	0.43062126368992093	1.2539204754392173	0.04670363791929444	0.2879137274638573	0.6240386884340272	-0.005595154070390649	0.2888723106547583	0.8545999894354627	-0.02512609628089742	0.3117220188792139	1.0868980992807988	0.028823948807730378	0.29245317842456536	1.186747982976043	-0.010531472253933607	0.3148332338422998	1.2108055958929616	-0.03667486858704883	0.3497832439628331	1.216365759158336
